<svg version="1.1" id="Layer_1" xmlns="http://www.w3.org/2000/svg" xmlns:xlink="http://www.w3.org/1999/xlink" x="0px" y="0px"
	 width="100%" viewBox="0 0 512 512" enable-background="new 0 0 512 512" xml:space="preserve">
<path fill="#FFFFFF" opacity="1.000000" stroke="none" 
	d="
M172.000000,1.000000 
	C285.604675,1.000000 399.209351,1.000000 513.000000,1.000000 
	C513.000000,150.023270 513.000000,299.046631 512.531616,448.540222 
	C505.727631,449.058960 499.392029,449.107483 492.836609,449.084961 
	C492.616760,449.013885 492.157501,448.963013 492.098389,448.500122 
	C491.977905,442.020996 491.916534,436.004761 491.915497,429.524109 
	C491.983887,344.572784 492.089020,260.085663 491.913818,175.599136 
	C491.880798,159.688400 481.759827,145.732468 467.001373,141.358063 
	C459.122101,139.022659 450.381409,139.593643 442.066162,138.477936 
	C447.629395,120.708588 448.795593,102.987457 444.916046,85.188995 
	C436.695801,47.476086 414.260132,21.677380 378.529266,7.256948 
	C373.491058,5.223602 368.905945,5.637661 365.214630,9.465661 
	C361.560883,13.254684 361.290955,17.912083 363.046112,22.925777 
	C367.046265,34.352303 370.779938,45.871906 374.653992,57.342846 
	C377.778717,66.595131 379.290558,75.956093 377.003296,85.665764 
	C372.247437,105.855293 355.661346,119.473465 335.838623,120.940758 
	C313.898682,122.564758 295.286011,107.998451 288.955139,87.547554 
	C284.885468,74.401115 280.275299,61.422710 275.988434,48.342430 
	C274.406128,43.514492 270.826385,40.742359 266.208984,40.193096 
	C261.686859,39.655170 257.262634,40.934528 254.734497,45.506355 
	C251.456757,51.433727 247.705963,57.149414 244.963837,63.314297 
	C234.009521,87.941833 232.983856,113.205856 240.504822,138.934387 
	C217.032562,138.976471 194.024948,138.975052 171.011566,138.506653 
	C171.003876,126.542213 170.919662,115.043602 171.077789,103.548325 
	C171.105438,101.538292 171.761169,99.308708 172.794327,97.579300 
	C177.895416,89.040489 183.293793,80.679245 188.391052,72.138229 
	C189.180771,70.814964 189.495728,68.745674 189.112473,67.257751 
	C185.851944,54.598747 182.297714,42.015663 178.996521,29.366762 
	C176.537369,19.944315 174.323242,10.457917 172.000000,1.000000 
z"/>
<path fill="#FFFFFF" opacity="1.000000" stroke="none" 
	d="
M1.000000,449.000000 
	C1.000000,299.779572 1.000000,150.559143 1.000000,1.000000 
	C44.353638,1.000000 87.708160,1.000000 131.530533,1.411001 
	C131.960846,2.483953 132.039398,3.177518 131.868958,3.803270 
	C126.192070,24.645702 120.437927,45.467445 114.890167,66.344063 
	C114.418556,68.118774 114.727150,70.590103 115.650948,72.163963 
	C120.331886,80.138809 125.293892,87.950783 130.262131,95.753136 
	C131.258804,97.318375 132.710068,98.594154 133.970764,100.471428 
	C133.964828,113.631310 133.939835,126.323143 133.451569,139.009048 
	C108.658714,139.002075 84.325974,139.244141 60.000538,138.926788 
	C38.701794,138.648926 21.955816,156.307205 21.972578,177.074814 
	C22.039154,259.561920 21.998915,342.049133 22.006855,424.536285 
	C22.007032,426.365906 22.109846,428.195526 22.106619,430.488708 
	C22.048456,436.865082 22.048456,442.777863 22.048456,449.000000 
	C14.570762,449.000000 7.785381,449.000000 1.000000,449.000000 
z"/>
<path fill="#FCC63F" opacity="1.000000" stroke="none" 
	d="
M492.157501,448.963013 
	C492.157501,448.963013 492.616760,449.013885 493.148621,449.348999 
	C500.120300,449.789368 506.560150,449.894684 513.000000,450.000000 
	C513.000000,453.362091 513.000000,456.724213 512.660889,460.728699 
	C509.753815,475.037964 503.907593,486.890472 492.666687,496.008301 
	C362.092072,496.002991 231.994781,495.903534 101.898178,496.154022 
	C85.522491,496.185547 71.084351,491.870361 58.548279,481.654938 
	C48.579330,473.531494 41.522758,463.265808 38.050175,449.967712 
	C40.782162,449.967712 42.914551,449.967743 45.046940,449.967743 
	C191.635315,449.967743 338.223694,449.971558 484.812073,449.928925 
	C486.886749,449.928314 488.961212,449.344391 491.316071,449.016357 
	C491.783386,448.987671 491.970428,448.975342 492.157501,448.963013 
z"/>
<path fill="#D8A32E" opacity="1.000000" stroke="none" 
	d="
M491.035767,449.032715 
	C488.961212,449.344391 486.886749,449.928314 484.812073,449.928925 
	C338.223694,449.971558 191.635315,449.967743 45.046940,449.967743 
	C42.914551,449.967743 40.782162,449.967712 38.050175,449.967712 
	C41.522758,463.265808 48.579330,473.531494 58.548279,481.654938 
	C71.084351,491.870361 85.522491,496.185547 101.898178,496.154022 
	C231.994781,495.903534 362.092072,496.002991 492.513062,496.317627 
	C489.752838,499.018982 486.961609,502.012909 483.524170,503.649506 
	C476.193787,507.139526 468.528229,509.925537 461.000000,513.000000 
	C325.312439,513.000000 189.624878,513.000000 53.297577,512.650146 
	C34.044331,508.831421 19.508160,499.184265 10.107597,482.758850 
	C6.231738,475.986633 3.986760,468.281067 1.000000,461.000000 
	C1.000000,457.307098 1.000000,453.614166 1.000000,449.460632 
	C7.785381,449.000000 14.570762,449.000000 22.048456,449.000000 
	C22.048456,442.777863 22.048456,436.865082 22.563551,430.475159 
	C179.056747,429.994263 335.034851,429.990509 491.010498,430.456360 
	C491.017303,436.961548 491.026520,442.997131 491.035767,449.032715 
z"/>
<path fill="#D8D8D8" opacity="1.000000" stroke="none" 
	d="
M133.951721,100.003387 
	C132.710068,98.594154 131.258804,97.318375 130.262131,95.753136 
	C125.293892,87.950783 120.331886,80.138809 115.650948,72.163963 
	C114.727150,70.590103 114.418556,68.118774 114.890167,66.344063 
	C120.437927,45.467445 126.192070,24.645702 131.868958,3.803270 
	C132.039398,3.177518 131.960846,2.483953 131.999191,1.411001 
	C145.020889,1.000000 158.041794,1.000000 171.531342,1.000000 
	C174.323242,10.457917 176.537369,19.944315 178.996521,29.366762 
	C182.297714,42.015663 185.851944,54.598747 189.112473,67.257751 
	C189.495728,68.745674 189.180771,70.814964 188.391052,72.138229 
	C183.293793,80.679245 177.895416,89.040489 172.794327,97.579300 
	C171.761169,99.308708 171.105438,101.538292 171.077789,103.548325 
	C170.919662,115.043602 171.003876,126.542213 170.951157,138.974457 
	C170.932449,150.854797 170.968399,161.800400 170.950287,173.231934 
	C170.883972,193.026978 170.890335,212.336121 170.854706,231.645172 
	C170.812012,254.779861 170.733475,277.914459 170.397858,301.094116 
	C169.759537,301.186951 169.393814,301.234741 168.569092,301.178101 
	C163.064713,301.143890 158.019333,301.214111 152.742462,301.222565 
	C152.511002,301.160797 152.058716,301.002655 152.048386,300.533966 
	C152.033005,258.124969 152.027069,216.184662 152.023270,174.244354 
	C152.021225,151.609894 152.024414,128.975418 152.021912,106.340950 
	C152.021225,99.988564 152.015808,99.985313 145.435287,99.984886 
	C141.607437,99.984642 137.779572,99.996811 133.951721,100.003387 
z"/>
<path fill="#FFFFFF" opacity="1.000000" stroke="none" 
	d="
M461.468689,513.000000 
	C468.528229,509.925537 476.193787,507.139526 483.524170,503.649506 
	C486.961609,502.012909 489.752838,499.018982 492.990601,496.330902 
	C503.907593,486.890472 509.753815,475.037964 512.660889,461.185547 
	C513.000000,478.260101 513.000000,495.520172 513.000000,513.000000 
	C495.979736,513.000000 478.958527,513.000000 461.468689,513.000000 
z"/>
<path fill="#FFFFFF" opacity="1.000000" stroke="none" 
	d="
M1.000000,461.468658 
	C3.986760,468.281067 6.231738,475.986633 10.107597,482.758850 
	C19.508160,499.184265 34.044331,508.831421 52.828918,512.650146 
	C35.739906,513.000000 18.479811,513.000000 1.000000,513.000000 
	C1.000000,495.979736 1.000000,478.958527 1.000000,461.468658 
z"/>
<path fill="#E9B336" opacity="1.000000" stroke="none" 
	d="
M513.000000,449.750000 
	C506.560150,449.894684 500.120300,449.789368 493.368439,449.420044 
	C499.392029,449.107483 505.727631,449.058960 512.531616,449.005219 
	C513.000000,449.000000 513.000000,449.500000 513.000000,449.750000 
z"/>
<path fill="#D8D8D8" opacity="1.000000" stroke="none" 
	d="
M240.969467,138.890869 
	C232.983856,113.205856 234.009521,87.941833 244.963837,63.314297 
	C247.705963,57.149414 251.456757,51.433727 254.734497,45.506355 
	C257.262634,40.934528 261.686859,39.655170 266.208984,40.193096 
	C270.826385,40.742359 274.406128,43.514492 275.988434,48.342430 
	C280.275299,61.422710 284.885468,74.401115 288.955139,87.547554 
	C295.286011,107.998451 313.898682,122.564758 335.838623,120.940758 
	C355.661346,119.473465 372.247437,105.855293 377.003296,85.665764 
	C379.290558,75.956093 377.778717,66.595131 374.653992,57.342846 
	C370.779938,45.871906 367.046265,34.352303 363.046112,22.925777 
	C361.290955,17.912083 361.560883,13.254684 365.214630,9.465661 
	C368.905945,5.637661 373.491058,5.223602 378.529266,7.256948 
	C414.260132,21.677380 436.695801,47.476086 444.916046,85.188995 
	C448.795593,102.987457 447.629395,120.708588 441.747589,138.664352 
	C438.196228,146.002136 435.201569,152.883896 431.732056,159.517273 
	C429.479340,163.824280 426.534149,167.769089 423.696594,171.988678 
	C423.241455,172.304565 423.085663,172.565689 422.731781,173.055023 
	C414.828430,180.029907 408.000671,188.158279 399.378052,193.242859 
	C391.721466,197.757828 389.850739,202.563980 389.898773,210.826279 
	C390.218689,265.874847 390.008789,320.926544 389.505035,375.978546 
	C357.418304,375.965088 325.797638,375.950287 294.125702,375.473602 
	C294.060211,336.022522 294.044037,297.033356 294.032654,258.044159 
	C294.027466,240.215683 294.077942,222.386902 293.960205,204.559204 
	C293.948456,202.775620 293.474976,199.985580 292.314117,199.373917 
	C279.515259,192.630219 269.141937,182.967957 259.132202,172.371124 
	C251.463669,161.836121 245.274567,150.876968 240.969467,138.890869 
z"/>
<path fill="#FCC63F" opacity="1.000000" stroke="none" 
	d="
M423.899231,171.876175 
	C426.534149,167.769089 429.479340,163.824280 431.732056,159.517273 
	C435.201569,152.883896 438.196228,146.002136 441.710907,139.039337 
	C450.381409,139.593643 459.122101,139.022659 467.001373,141.358063 
	C481.759827,145.732468 491.880798,159.688400 491.913818,175.599136 
	C492.089020,260.085663 491.983887,344.572784 491.704956,429.522614 
	C491.434113,429.985535 491.012939,429.986755 491.012939,429.986755 
	C335.034851,429.990509 179.056747,429.994263 22.621714,430.011597 
	C22.109846,428.195526 22.007032,426.365906 22.006855,424.536285 
	C21.998915,342.049133 22.039154,259.561920 21.972578,177.074814 
	C21.955816,156.307205 38.701794,138.648926 60.000538,138.926788 
	C84.325974,139.244141 108.658714,139.002075 133.484955,139.476120 
	C133.963791,150.878616 133.945969,161.808105 133.466461,172.753662 
	C107.425049,172.769714 81.845329,172.769714 56.257568,172.769714 
	C56.257568,254.256241 56.257568,334.973083 56.257568,415.990875 
	C135.720551,415.990875 214.842072,415.990875 293.930969,416.031403 
	C293.898376,416.071930 293.955017,416.159882 294.072083,416.353149 
	C294.189117,416.546417 294.569763,416.789642 294.569763,416.789642 
	C294.569763,416.789642 295.021454,416.780701 295.486755,416.821472 
	C326.960205,416.837494 357.968353,416.812805 389.209137,416.791809 
	C389.758423,416.687653 389.973358,416.476318 390.122498,416.109131 
	C390.158478,416.056732 390.109222,415.939545 390.569824,415.975647 
	C413.275238,416.011749 435.520081,416.011749 457.780304,416.011749 
	C457.780304,334.647034 457.780304,253.951767 457.780304,172.659180 
	C446.365204,172.659180 435.247589,172.659180 424.096954,172.456146 
	C424.063934,172.253128 423.899231,171.876175 423.899231,171.876175 
z"/>
<path fill="#FCC63F" opacity="1.000000" stroke="none" 
	d="
M240.504822,138.934387 
	C245.274567,150.876968 251.463669,161.836121 258.634766,172.398285 
	C229.155457,172.753098 200.079910,172.749542 171.004349,172.745987 
	C170.968399,161.800400 170.932449,150.854797 170.956940,139.441422 
	C194.024948,138.975052 217.032562,138.976471 240.504822,138.934387 
z"/>
<path fill="#E9B336" opacity="1.000000" stroke="none" 
	d="
M491.010498,430.456360 
	C491.012939,429.986755 491.434113,429.985535 491.644653,429.987030 
	C491.916534,436.004761 491.977905,442.020996 492.098389,448.500122 
	C491.970428,448.975342 491.783386,448.987671 491.316071,449.016357 
	C491.026520,442.997131 491.017303,436.961548 491.010498,430.456360 
z"/>
<path fill="#BCBCBC" opacity="1.000000" stroke="none" 
	d="
M133.928146,172.737595 
	C133.945969,161.808105 133.963791,150.878616 133.948242,139.482056 
	C133.939835,126.323143 133.964828,113.631310 133.970764,100.471428 
	C137.779572,99.996811 141.607437,99.984642 145.435287,99.984886 
	C152.015808,99.985313 152.021225,99.988564 152.021912,106.340950 
	C152.024414,128.975418 152.021225,151.609894 152.023270,174.244354 
	C152.027069,216.184662 152.033005,258.124969 151.623169,300.627136 
	C149.485962,301.233673 147.763641,301.278320 145.652252,301.202637 
	C144.459946,301.154327 143.656677,301.226379 142.412354,301.263397 
	C139.293335,301.118042 136.615387,301.007751 133.959595,300.435730 
	C133.963882,257.561859 133.946014,215.149734 133.928146,172.737595 
z"/>
<path fill="#45B8C4" opacity="1.000000" stroke="none" 
	d="
M133.466461,172.753662 
	C133.946014,215.149734 133.963882,257.561859 133.500916,300.481934 
	C129.877716,300.996429 126.721458,300.813873 123.595490,301.043549 
	C112.198753,301.880920 105.962875,304.605133 103.150421,317.256775 
	C103.107841,317.502655 103.246239,317.982086 103.167267,318.445801 
	C103.128494,350.608734 103.168694,382.307892 103.182068,414.251465 
	C103.155228,414.495880 103.499878,414.846558 103.499878,414.846558 
	C103.499878,414.846558 103.990379,414.812256 104.453918,414.889496 
	C136.932007,414.916687 168.946564,414.866638 201.208038,414.811157 
	C201.812714,414.599335 201.892960,414.314636 201.756195,413.490112 
	C201.678802,402.682129 201.540909,392.335724 201.471863,381.528198 
	C201.558212,368.125854 201.650269,355.184113 201.566391,342.243530 
	C201.512726,333.963348 201.632996,325.645569 200.887650,317.415985 
	C200.039108,308.047119 192.663635,302.099396 183.273529,301.957153 
	C179.068893,301.893463 174.871262,301.366058 170.670456,301.049072 
	C170.733475,277.914459 170.812012,254.779861 170.854706,231.645172 
	C170.890335,212.336121 170.883972,193.026978 170.950287,173.231934 
	C200.079910,172.749542 229.155457,172.753098 258.728455,172.729492 
	C269.141937,182.967957 279.515259,192.630219 292.314117,199.373917 
	C293.474976,199.985580 293.948456,202.775620 293.960205,204.559204 
	C294.077942,222.386902 294.027466,240.215683 294.032654,258.044159 
	C294.044037,297.033356 294.060211,336.022522 294.060669,375.944641 
	C294.019135,389.915344 293.991364,402.953125 293.963593,415.990875 
	C214.842072,415.990875 135.720551,415.990875 56.257568,415.990875 
	C56.257568,334.973083 56.257568,254.256241 56.257568,172.769714 
	C81.845329,172.769714 107.425049,172.769714 133.466461,172.753662 
z"/>
<path fill="#F9572B" opacity="1.000000" stroke="none" 
	d="
M170.397858,301.094116 
	C174.871262,301.366058 179.068893,301.893463 183.273529,301.957153 
	C192.663635,302.099396 200.039108,308.047119 200.887650,317.415985 
	C201.632996,325.645569 201.512726,333.963348 201.566391,342.243530 
	C201.650269,355.184113 201.558212,368.125854 201.046677,381.531250 
	C185.429001,381.995026 170.304810,382.072449 155.181854,381.968323 
	C144.220245,381.892853 132.521896,371.417358 132.053238,361.077118 
	C131.505630,348.994904 131.202377,336.896606 131.068466,324.802216 
	C130.961975,315.183685 133.655685,306.817413 143.326447,302.031036 
	C144.446457,301.778992 145.243896,301.550964 146.041321,301.322968 
	C147.763641,301.278320 149.485962,301.233673 151.633499,301.095825 
	C152.058716,301.002655 152.511002,301.160797 153.080841,301.453766 
	C158.776489,301.592010 163.902298,301.437256 169.028091,301.282532 
	C169.393814,301.234741 169.759537,301.186951 170.397858,301.094116 
z"/>
<path fill="#D9755A" opacity="1.000000" stroke="none" 
	d="
M168.569092,301.178101 
	C163.902298,301.437256 158.776489,301.592010 153.312317,301.515533 
	C158.019333,301.214111 163.064713,301.143890 168.569092,301.178101 
z"/>
<path fill="#45B8C4" opacity="1.000000" stroke="none" 
	d="
M424.129974,172.659180 
	C435.247589,172.659180 446.365204,172.659180 457.780304,172.659180 
	C457.780304,253.951767 457.780304,334.647034 457.780304,416.011749 
	C435.520081,416.011749 413.275238,416.011749 390.576233,415.511414 
	C390.071747,401.999786 390.021393,388.988495 389.971069,375.977203 
	C390.008789,320.926544 390.218689,265.874847 389.898773,210.826279 
	C389.850739,202.563980 391.721466,197.757828 399.378052,193.242859 
	C408.000671,188.158279 414.828430,180.029907 423.018677,173.053070 
	C423.776947,172.806824 423.953461,172.733002 424.129974,172.659180 
z"/>
<path fill="#BCBCBC" opacity="1.000000" stroke="none" 
	d="
M389.505035,375.978546 
	C390.021393,388.988495 390.071747,401.999786 390.115662,415.475311 
	C390.109222,415.939545 390.158478,416.056732 389.898438,416.131470 
	C389.346619,416.319214 389.125977,416.513184 388.976501,416.788086 
	C357.968353,416.812805 326.960205,416.837494 295.354004,416.651184 
	C294.529938,416.229828 294.262970,416.136383 293.955017,416.159882 
	C293.955017,416.159882 293.898376,416.071930 293.930969,416.031403 
	C293.991364,402.953125 294.019135,389.915344 294.111938,376.406555 
	C325.797638,375.950287 357.418304,375.965088 389.505035,375.978546 
z"/>
<path fill="#BDC16D" opacity="1.000000" stroke="none" 
	d="
M424.096954,172.456146 
	C423.953461,172.733002 423.776947,172.806824 423.313538,172.882568 
	C423.085663,172.565689 423.241455,172.304565 423.696594,171.988678 
	C423.899231,171.876175 424.063934,172.253128 424.096954,172.456146 
z"/>
<path fill="#D2C69F" opacity="1.000000" stroke="none" 
	d="
M294.072083,416.353149 
	C294.262970,416.136383 294.529938,416.229828 294.888672,416.610443 
	C295.021454,416.780701 294.569763,416.789642 294.569763,416.789642 
	C294.569763,416.789642 294.189117,416.546417 294.072083,416.353149 
z"/>
<path fill="#D2C69F" opacity="1.000000" stroke="none" 
	d="
M389.209137,416.791809 
	C389.125977,416.513184 389.346619,416.319214 389.862488,416.183838 
	C389.973358,416.476318 389.758423,416.687653 389.209137,416.791809 
z"/>
<path fill="#D8401D" opacity="1.000000" stroke="none" 
	d="
M143.003876,302.055084 
	C133.655685,306.817413 130.961975,315.183685 131.068466,324.802216 
	C131.202377,336.896606 131.505630,348.994904 132.053238,361.077118 
	C132.521896,371.417358 144.220245,381.892853 155.181854,381.968323 
	C170.304810,382.072449 185.429001,381.995026 200.977844,381.992340 
	C201.540909,392.335724 201.678802,402.682129 201.587158,413.588623 
	C201.167969,414.337219 201.035797,414.559845 200.961121,414.816620 
	C168.946564,414.866638 136.932007,414.916687 104.365288,414.718567 
	C103.658081,414.255493 103.456673,414.101044 103.208893,414.007080 
	C103.168694,382.307892 103.128494,350.608734 103.301971,318.347412 
	C103.677925,317.438568 103.570374,317.180481 103.193001,317.010925 
	C105.962875,304.605133 112.198753,301.880920 123.595490,301.043549 
	C126.721458,300.813873 129.877716,300.996429 133.478760,300.943634 
	C136.615387,301.007751 139.293335,301.118042 142.443512,301.453552 
	C142.915741,301.678711 143.003876,302.055084 143.003876,302.055084 
z"/>
<path fill="#D9755A" opacity="1.000000" stroke="none" 
	d="
M143.326447,302.031036 
	C143.003876,302.055084 142.915741,301.678711 142.884583,301.488586 
	C143.656677,301.226379 144.459946,301.154327 145.652252,301.202637 
	C145.243896,301.550964 144.446457,301.778992 143.326447,302.031036 
z"/>
<path fill="#D54C2A" opacity="1.000000" stroke="none" 
	d="
M103.182060,414.251465 
	C103.456673,414.101044 103.658081,414.255493 103.901749,414.641327 
	C103.990379,414.812256 103.499878,414.846558 103.499878,414.846558 
	C103.499878,414.846558 103.155228,414.495880 103.182060,414.251465 
z"/>
<path fill="#BC634A" opacity="1.000000" stroke="none" 
	d="
M201.208038,414.811157 
	C201.035797,414.559845 201.167969,414.337219 201.526688,414.050201 
	C201.892960,414.314636 201.812714,414.599335 201.208038,414.811157 
z"/>
<path fill="#D54C2A" opacity="1.000000" stroke="none" 
	d="
M103.150421,317.256775 
	C103.570374,317.180481 103.677925,317.438568 103.380943,317.883667 
	C103.246239,317.982086 103.107841,317.502655 103.150421,317.256775 
z"/>
</svg>